<svg width="36" height="36" viewBox="0 0 36 36" fill="none" xmlns="http://www.w3.org/2000/svg">
<g clip-path="url(#clip0_127_629)">
<rect width="36" height="36" fill="black"/>
<mask id="mask0_127_629" style="mask-type:alpha" maskUnits="userSpaceOnUse" x="17" y="9" width="11" height="26">
<path d="M17.9938 34.2788H27.7266L27.7266 9.65647H17.9938L17.9938 34.2788Z" fill="url(#paint0_linear_127_629)"/>
</mask>
<g mask="url(#mask0_127_629)">
<path d="M17.9917 9.65636C17.9917 -5.29248 26.8473 -17.4109 37.7712 -17.4109C48.6952 -17.4109 57.5508 -5.29248 57.5508 9.65636C57.5508 24.6052 48.6952 36.7236 37.7712 36.7236C26.8473 36.7236 17.9917 24.6052 17.9917 9.65636Z" fill="white"/>
</g>
<mask id="mask1_127_629" style="mask-type:alpha" maskUnits="userSpaceOnUse" x="8" y="-20" width="10" height="47">
<path d="M17.7328 -20H8V26.401H17.7328V-20Z" fill="url(#paint1_linear_127_629)"/>
</mask>
<g mask="url(#mask1_127_629)">
<path d="M17.731 26.4013C17.731 41.3501 8.87539 53.4685 -2.04856 53.4685C-12.9725 53.4685 -21.8281 41.3501 -21.8281 26.4013C-21.8281 11.4524 -12.9725 -0.666016 -2.04856 -0.666016C8.87539 -0.666016 17.731 11.4524 17.731 26.4013Z" fill="white"/>
</g>
</g>
<defs>
<linearGradient id="paint0_linear_127_629" x1="22.8602" y1="34.2788" x2="22.8602" y2="9.65654" gradientUnits="userSpaceOnUse">
<stop stop-color="white"/>
<stop offset="1" stop-color="#8069B7"/>
</linearGradient>
<linearGradient id="paint1_linear_127_629" x1="12.8664" y1="-20" x2="12.8664" y2="26.401" gradientUnits="userSpaceOnUse">
<stop stop-color="white"/>
<stop offset="1" stop-color="#8069B7"/>
</linearGradient>
<clipPath id="clip0_127_629">
<rect width="36" height="36" fill="white"/>
</clipPath>
</defs>
</svg>
